<?xml version="1.0" encoding="UTF-8"?>
<svg version="1.1" xmlns="http://www.w3.org/2000/svg" width="71" height="73">
<path d="M0 0 C23.43 0 46.86 0 71 0 C71 24.09 71 48.18 71 73 C47.57 73 24.14 73 0 73 C0 48.91 0 24.82 0 0 Z " fill="#FBFBFE" transform="translate(0,0)"/>
<path d="M0 0 C1.11785889 -0.00315216 2.23571777 -0.00630432 3.38745117 -0.009552 C5.21240112 -0.00651566 5.21240112 -0.00651566 7.07421875 -0.00341797 C8.31341064 -0.00437469 9.55260254 -0.00533142 10.8293457 -0.00631714 C13.45560156 -0.00699921 16.08176508 -0.00564085 18.70800781 -0.00097656 C22.08100589 0.00472073 25.4539244 0.00144151 28.82691956 -0.00454903 C32.03435552 -0.00902317 35.24178175 -0.00589429 38.44921875 -0.00341797 C39.66585205 -0.0054422 40.88248535 -0.00746643 42.13598633 -0.009552 C43.81277466 -0.00482376 43.81277466 -0.00482376 45.5234375 0 C46.51303467 0.00079559 47.50263184 0.00159119 48.5222168 0.00241089 C50.76171875 0.12939453 50.76171875 0.12939453 51.76171875 1.12939453 C51.76171875 2.77939453 51.76171875 4.42939453 51.76171875 6.12939453 C32.95171875 6.12939453 14.14171875 6.12939453 -5.23828125 6.12939453 C-5.56828125 4.47939453 -5.89828125 2.82939453 -6.23828125 1.12939453 C-4.53262507 -0.57626165 -2.3309463 0.00187398 0 0 Z " fill="#564EE6" transform="translate(11.23828125,35.87060546875)"/>
<path d="M0 0 C1.67542976 0.28604898 3.34385343 0.61781233 5 1 C5 3.64 5 6.28 5 9 C5.99 9 6.98 9 8 9 C8 7.35 8 5.7 8 4 C9.65614657 3.61781233 11.32457024 3.28604898 13 3 C14 4 14 4 14.1328125 6.03125 C14.13023438 6.8459375 14.12765625 7.660625 14.125 8.5 C14.12886719 9.72203125 14.12886719 9.72203125 14.1328125 10.96875 C14 13 14 13 13 14 C11.36527118 14.08700342 9.72685945 14.10701063 8.08984375 14.09765625 C7.10048828 14.09443359 6.11113281 14.09121094 5.09179688 14.08789062 C4.05087891 14.07951172 3.00996094 14.07113281 1.9375 14.0625 C0.89271484 14.05798828 -0.15207031 14.05347656 -1.22851562 14.04882812 C-3.81903454 14.03699927 -6.40952422 14.01906319 -9 14 C-9 10.37 -9 6.74 -9 3 C-6.525 3.495 -6.525 3.495 -4 4 C-4 5.65 -4 7.3 -4 9 C-3.01 9 -2.02 9 -1 9 C-1.020625 7.700625 -1.04125 6.40125 -1.0625 5.0625 C-1.08399454 3.70834367 -1.07148199 2.35243917 -1 1 C-0.67 0.67 -0.34 0.34 0 0 Z " fill="#524AE5" transform="translate(32,54)"/>
<path d="M0 0 C1.65322266 0.01740234 1.65322266 0.01740234 3.33984375 0.03515625 C4.99693359 0.04869141 4.99693359 0.04869141 6.6875 0.0625 C7.54214844 0.07410156 8.39679687 0.08570313 9.27734375 0.09765625 C9.65953142 1.75380282 9.99129477 3.42222649 10.27734375 5.09765625 C9.27734375 6.09765625 9.27734375 6.09765625 6.5546875 6.1953125 C4.90146484 6.17791016 4.90146484 6.17791016 3.21484375 6.16015625 C1.55775391 6.14662109 1.55775391 6.14662109 -0.1328125 6.1328125 C-0.98746094 6.12121094 -1.84210937 6.10960937 -2.72265625 6.09765625 C-3.10484392 4.44150968 -3.43660727 2.77308601 -3.72265625 1.09765625 C-2.72265625 0.09765625 -2.72265625 0.09765625 0 0 Z " fill="#5249E5" transform="translate(52.72265625,44.90234375)"/>
<path d="M0 0 C1.65 0.33 3.3 0.66 5 1 C5 4.96 5 8.92 5 13 C3.35 13.33 1.7 13.66 0 14 C-1 13 -1 13 -1.1328125 10.3125 C-1.13023438 9.219375 -1.12765625 8.12625 -1.125 7 C-1.12757812 5.906875 -1.13015625 4.81375 -1.1328125 3.6875 C-1 1 -1 1 0 0 Z " fill="#574FE6" transform="translate(32,10)"/>
<path d="M0 0 C4.62 0 9.24 0 14 0 C14 1.65 14 3.3 14 5 C9.38 5 4.76 5 0 5 C0 3.35 0 1.7 0 0 Z " fill="#5249E5" transform="translate(49,28)"/>
<path d="M0 0 C1.23556641 0.01740234 1.23556641 0.01740234 2.49609375 0.03515625 C3.32238281 0.04417969 4.14867187 0.05320313 5 0.0625 C5.63808594 0.07410156 6.27617187 0.08570313 6.93359375 0.09765625 C7.59359375 1.41765625 8.25359375 2.73765625 8.93359375 4.09765625 C6.93359375 6.09765625 6.93359375 6.09765625 4.76953125 6.29296875 C3.55136719 6.25816406 3.55136719 6.25816406 2.30859375 6.22265625 C1.49132812 6.20460938 0.6740625 6.1865625 -0.16796875 6.16796875 C-0.79445313 6.14476562 -1.4209375 6.1215625 -2.06640625 6.09765625 C-2.44859392 4.44150968 -2.78035727 2.77308601 -3.06640625 1.09765625 C-2.06640625 0.09765625 -2.06640625 0.09765625 0 0 Z " fill="#554CE5" transform="translate(8.06640625,44.90234375)"/>
<path d="M0 0 C1.67542976 0.28604898 3.34385343 0.61781233 5 1 C5 4.3 5 7.6 5 11 C3.02 11 1.04 11 -1 11 C-1.02688151 9.35425434 -1.04634123 7.70838587 -1.0625 6.0625 C-1.07410156 5.14597656 -1.08570313 4.22945312 -1.09765625 3.28515625 C-1 1 -1 1 0 0 Z " fill="#574FE6" transform="translate(41,10)"/>
<path d="M0 0 C3.63 0 7.26 0 11 0 C11 1.65 11 3.3 11 5 C7.37 5 3.74 5 0 5 C0 3.35 0 1.7 0 0 Z " fill="#524AE5" transform="translate(5,28)"/>
<path d="M0 0 C2.475 0.495 2.475 0.495 5 1 C5 4.3 5 7.6 5 11 C3.35 11 1.7 11 0 11 C0 7.37 0 3.74 0 0 Z " fill="#5047E5" transform="translate(23,10)"/>
</svg>
